<mxfile host="app.diagrams.net" agent="Mozilla/5.0 (Windows NT 10.0; Win64; x64; rv:140.0) Gecko/20100101 Firefox/140.0" version="27.2.0">
  <diagram name="Page-1" id="LnanzS_Y5qivV_84NTKE">
    <mxGraphModel dx="2751" dy="1039" grid="1" gridSize="10" guides="1" tooltips="1" connect="1" arrows="1" fold="1" page="1" pageScale="1" pageWidth="850" pageHeight="1100" math="0" shadow="0">
      <root>
        <mxCell id="0" />
        <mxCell id="1" parent="0" />
        <mxCell id="nxthDnFM8uPwBL5Utckb-20" style="edgeStyle=orthogonalEdgeStyle;rounded=0;orthogonalLoop=1;jettySize=auto;html=1;labelBackgroundColor=none;fontColor=default;" parent="1" source="nxthDnFM8uPwBL5Utckb-2" target="nxthDnFM8uPwBL5Utckb-19" edge="1">
          <mxGeometry relative="1" as="geometry" />
        </mxCell>
        <mxCell id="nxthDnFM8uPwBL5Utckb-2" value="Start" style="ellipse;whiteSpace=wrap;html=1;labelBackgroundColor=none;" parent="1" vertex="1">
          <mxGeometry x="330" y="70" width="120" height="80" as="geometry" />
        </mxCell>
        <mxCell id="nxthDnFM8uPwBL5Utckb-32" value="" style="edgeStyle=orthogonalEdgeStyle;rounded=0;orthogonalLoop=1;jettySize=auto;html=1;labelBackgroundColor=none;fontColor=default;" parent="1" source="nxthDnFM8uPwBL5Utckb-3" target="nxthDnFM8uPwBL5Utckb-31" edge="1">
          <mxGeometry relative="1" as="geometry" />
        </mxCell>
        <mxCell id="nxthDnFM8uPwBL5Utckb-3" value="User nhập lựa&lt;br&gt;chọn hành động" style="shape=parallelogram;perimeter=parallelogramPerimeter;whiteSpace=wrap;html=1;fixedSize=1;labelBackgroundColor=none;" parent="1" vertex="1">
          <mxGeometry x="730" y="520" width="180" height="80" as="geometry" />
        </mxCell>
        <mxCell id="nxthDnFM8uPwBL5Utckb-22" value="" style="edgeStyle=orthogonalEdgeStyle;rounded=0;orthogonalLoop=1;jettySize=auto;html=1;labelBackgroundColor=none;fontColor=default;" parent="1" source="nxthDnFM8uPwBL5Utckb-19" target="nxthDnFM8uPwBL5Utckb-21" edge="1">
          <mxGeometry relative="1" as="geometry" />
        </mxCell>
        <mxCell id="nxthDnFM8uPwBL5Utckb-19" value="Tạo đường dẫn vHost, nếu có thì pass" style="rounded=0;whiteSpace=wrap;html=1;labelBackgroundColor=none;" parent="1" vertex="1">
          <mxGeometry x="500" y="60" width="160" height="100" as="geometry" />
        </mxCell>
        <mxCell id="nxthDnFM8uPwBL5Utckb-24" style="edgeStyle=orthogonalEdgeStyle;rounded=0;orthogonalLoop=1;jettySize=auto;html=1;entryX=0.5;entryY=0;entryDx=0;entryDy=0;labelBackgroundColor=none;fontColor=default;" parent="1" source="nxthDnFM8uPwBL5Utckb-21" target="nxthDnFM8uPwBL5Utckb-23" edge="1">
          <mxGeometry relative="1" as="geometry" />
        </mxCell>
        <mxCell id="nxthDnFM8uPwBL5Utckb-28" value="YES" style="edgeLabel;html=1;align=center;verticalAlign=middle;resizable=0;points=[];labelBackgroundColor=none;" parent="nxthDnFM8uPwBL5Utckb-24" vertex="1" connectable="0">
          <mxGeometry x="-0.319" relative="1" as="geometry">
            <mxPoint as="offset" />
          </mxGeometry>
        </mxCell>
        <mxCell id="nxthDnFM8uPwBL5Utckb-26" value="" style="edgeStyle=orthogonalEdgeStyle;rounded=0;orthogonalLoop=1;jettySize=auto;html=1;labelBackgroundColor=none;fontColor=default;" parent="1" source="nxthDnFM8uPwBL5Utckb-21" target="nxthDnFM8uPwBL5Utckb-25" edge="1">
          <mxGeometry relative="1" as="geometry" />
        </mxCell>
        <mxCell id="nxthDnFM8uPwBL5Utckb-27" value="NO" style="edgeLabel;html=1;align=center;verticalAlign=middle;resizable=0;points=[];labelBackgroundColor=none;" parent="nxthDnFM8uPwBL5Utckb-26" vertex="1" connectable="0">
          <mxGeometry x="-0.1" y="1" relative="1" as="geometry">
            <mxPoint as="offset" />
          </mxGeometry>
        </mxCell>
        <mxCell id="nxthDnFM8uPwBL5Utckb-21" value="Apache2&lt;br&gt;&lt;div&gt;MySQL&lt;/div&gt;&lt;div&gt;PHP&lt;br&gt;WP-CLI&lt;br&gt;đã được cài đặt?&lt;/div&gt;" style="rhombus;whiteSpace=wrap;html=1;rounded=0;labelBackgroundColor=none;" parent="1" vertex="1">
          <mxGeometry x="730" y="30" width="180" height="160" as="geometry" />
        </mxCell>
        <mxCell id="nxthDnFM8uPwBL5Utckb-30" style="edgeStyle=orthogonalEdgeStyle;rounded=0;orthogonalLoop=1;jettySize=auto;html=1;labelBackgroundColor=none;fontColor=default;" parent="1" source="nxthDnFM8uPwBL5Utckb-23" target="nxthDnFM8uPwBL5Utckb-3" edge="1">
          <mxGeometry relative="1" as="geometry" />
        </mxCell>
        <mxCell id="nxthDnFM8uPwBL5Utckb-23" value="In ra các lựa chọn&lt;br&gt;&lt;div align=&quot;left&quot;&gt;- (1) Xem&lt;/div&gt;&lt;div align=&quot;left&quot;&gt;- (2) Thêm 1 || nhiều vHost&lt;/div&gt;&lt;div align=&quot;left&quot;&gt;- (3) Xóa 1 || nhiều vHost&lt;/div&gt;&lt;div align=&quot;left&quot;&gt;- (4) Sửa các vHost&lt;/div&gt;&lt;div align=&quot;left&quot;&gt;- (5) Active vHost&lt;br&gt;- (6) Díable vHost&lt;br&gt;- (7) Install WordPress for a vHost&lt;/div&gt;&lt;div align=&quot;left&quot;&gt;- (0) Thoát chương trình&lt;/div&gt;" style="shape=document;whiteSpace=wrap;html=1;boundedLbl=1;labelBackgroundColor=none;" parent="1" vertex="1">
          <mxGeometry x="682.5" y="260" width="275" height="210" as="geometry" />
        </mxCell>
        <mxCell id="nxthDnFM8uPwBL5Utckb-25" value="Cài đặt Apache2, MySQL, PHP và&amp;nbsp;&lt;br&gt;WP-CLI" style="whiteSpace=wrap;html=1;rounded=0;labelBackgroundColor=none;" parent="1" vertex="1">
          <mxGeometry x="990" y="80" width="120" height="60" as="geometry" />
        </mxCell>
        <mxCell id="nxthDnFM8uPwBL5Utckb-34" style="edgeStyle=orthogonalEdgeStyle;rounded=0;orthogonalLoop=1;jettySize=auto;html=1;entryX=1;entryY=0.5;entryDx=0;entryDy=0;labelBackgroundColor=none;fontColor=default;" parent="1" source="nxthDnFM8uPwBL5Utckb-31" target="nxthDnFM8uPwBL5Utckb-33" edge="1">
          <mxGeometry relative="1" as="geometry" />
        </mxCell>
        <mxCell id="_kMjXkaMJAMeNi4R97vT-26" value="YES" style="edgeLabel;html=1;align=center;verticalAlign=middle;resizable=0;points=[];" parent="nxthDnFM8uPwBL5Utckb-34" vertex="1" connectable="0">
          <mxGeometry x="-0.0611" y="2" relative="1" as="geometry">
            <mxPoint x="6" y="-2" as="offset" />
          </mxGeometry>
        </mxCell>
        <mxCell id="nxthDnFM8uPwBL5Utckb-37" value="" style="edgeStyle=orthogonalEdgeStyle;rounded=0;orthogonalLoop=1;jettySize=auto;html=1;labelBackgroundColor=none;fontColor=default;" parent="1" source="nxthDnFM8uPwBL5Utckb-31" target="nxthDnFM8uPwBL5Utckb-36" edge="1">
          <mxGeometry relative="1" as="geometry" />
        </mxCell>
        <mxCell id="_kMjXkaMJAMeNi4R97vT-27" value="&lt;div&gt;NO&lt;/div&gt;" style="edgeLabel;html=1;align=center;verticalAlign=middle;resizable=0;points=[];" parent="nxthDnFM8uPwBL5Utckb-37" vertex="1" connectable="0">
          <mxGeometry x="-0.1417" y="5" relative="1" as="geometry">
            <mxPoint x="-5" y="-5" as="offset" />
          </mxGeometry>
        </mxCell>
        <mxCell id="nxthDnFM8uPwBL5Utckb-31" value="1" style="rhombus;whiteSpace=wrap;html=1;labelBackgroundColor=none;" parent="1" vertex="1">
          <mxGeometry x="780" y="680" width="80" height="80" as="geometry" />
        </mxCell>
        <mxCell id="nxthDnFM8uPwBL5Utckb-48" style="edgeStyle=orthogonalEdgeStyle;rounded=0;orthogonalLoop=1;jettySize=auto;html=1;labelBackgroundColor=none;fontColor=default;" parent="1" source="nxthDnFM8uPwBL5Utckb-33" edge="1">
          <mxGeometry relative="1" as="geometry">
            <mxPoint x="599.9999999999998" y="340" as="targetPoint" />
          </mxGeometry>
        </mxCell>
        <mxCell id="nxthDnFM8uPwBL5Utckb-33" value="In ra các vHost hiện tại" style="shape=document;whiteSpace=wrap;html=1;boundedLbl=1;labelBackgroundColor=none;" parent="1" vertex="1">
          <mxGeometry x="540" y="680" width="120" height="80" as="geometry" />
        </mxCell>
        <mxCell id="nxthDnFM8uPwBL5Utckb-39" style="edgeStyle=orthogonalEdgeStyle;rounded=0;orthogonalLoop=1;jettySize=auto;html=1;entryX=1;entryY=0.5;entryDx=0;entryDy=0;labelBackgroundColor=none;fontColor=default;" parent="1" source="nxthDnFM8uPwBL5Utckb-36" target="nxthDnFM8uPwBL5Utckb-38" edge="1">
          <mxGeometry relative="1" as="geometry" />
        </mxCell>
        <mxCell id="_kMjXkaMJAMeNi4R97vT-37" value="YES" style="edgeLabel;html=1;align=center;verticalAlign=middle;resizable=0;points=[];" parent="nxthDnFM8uPwBL5Utckb-39" vertex="1" connectable="0">
          <mxGeometry x="-0.2964" relative="1" as="geometry">
            <mxPoint as="offset" />
          </mxGeometry>
        </mxCell>
        <mxCell id="nxthDnFM8uPwBL5Utckb-54" value="" style="edgeStyle=orthogonalEdgeStyle;rounded=0;orthogonalLoop=1;jettySize=auto;html=1;labelBackgroundColor=none;fontColor=default;" parent="1" source="nxthDnFM8uPwBL5Utckb-36" target="nxthDnFM8uPwBL5Utckb-53" edge="1">
          <mxGeometry relative="1" as="geometry" />
        </mxCell>
        <mxCell id="_kMjXkaMJAMeNi4R97vT-28" value="NO" style="edgeLabel;html=1;align=center;verticalAlign=middle;resizable=0;points=[];" parent="nxthDnFM8uPwBL5Utckb-54" vertex="1" connectable="0">
          <mxGeometry x="-0.1281" y="-1" relative="1" as="geometry">
            <mxPoint as="offset" />
          </mxGeometry>
        </mxCell>
        <mxCell id="nxthDnFM8uPwBL5Utckb-36" value="&lt;div&gt;2&lt;/div&gt;" style="rhombus;whiteSpace=wrap;html=1;labelBackgroundColor=none;" parent="1" vertex="1">
          <mxGeometry x="780" y="840" width="80" height="80" as="geometry" />
        </mxCell>
        <mxCell id="nxthDnFM8uPwBL5Utckb-41" value="" style="edgeStyle=orthogonalEdgeStyle;rounded=0;orthogonalLoop=1;jettySize=auto;html=1;labelBackgroundColor=none;fontColor=default;" parent="1" source="nxthDnFM8uPwBL5Utckb-38" target="nxthDnFM8uPwBL5Utckb-40" edge="1">
          <mxGeometry relative="1" as="geometry" />
        </mxCell>
        <mxCell id="nxthDnFM8uPwBL5Utckb-38" value="User input 1&lt;br&gt;hoặc nhiều vhost&lt;br&gt;cần tạo" style="shape=parallelogram;perimeter=parallelogramPerimeter;whiteSpace=wrap;html=1;fixedSize=1;labelBackgroundColor=none;" parent="1" vertex="1">
          <mxGeometry x="540" y="845" width="120" height="70" as="geometry" />
        </mxCell>
        <mxCell id="nxthDnFM8uPwBL5Utckb-43" style="edgeStyle=orthogonalEdgeStyle;rounded=0;orthogonalLoop=1;jettySize=auto;html=1;exitX=0;exitY=0.5;exitDx=0;exitDy=0;entryX=1;entryY=0.5;entryDx=0;entryDy=0;labelBackgroundColor=none;fontColor=default;" parent="1" source="nxthDnFM8uPwBL5Utckb-40" target="nxthDnFM8uPwBL5Utckb-42" edge="1">
          <mxGeometry relative="1" as="geometry" />
        </mxCell>
        <mxCell id="ND1mT_cxICm1w8T-xe2l-83" value="&lt;div&gt;YES&lt;/div&gt;" style="edgeLabel;html=1;align=center;verticalAlign=middle;resizable=0;points=[];" vertex="1" connectable="0" parent="nxthDnFM8uPwBL5Utckb-43">
          <mxGeometry x="-0.2225" y="-1" relative="1" as="geometry">
            <mxPoint as="offset" />
          </mxGeometry>
        </mxCell>
        <mxCell id="nxthDnFM8uPwBL5Utckb-47" style="edgeStyle=orthogonalEdgeStyle;rounded=0;orthogonalLoop=1;jettySize=auto;html=1;exitX=0.5;exitY=0;exitDx=0;exitDy=0;entryX=0.5;entryY=1;entryDx=0;entryDy=0;labelBackgroundColor=none;fontColor=default;" parent="1" source="nxthDnFM8uPwBL5Utckb-40" target="nxthDnFM8uPwBL5Utckb-46" edge="1">
          <mxGeometry relative="1" as="geometry" />
        </mxCell>
        <mxCell id="ND1mT_cxICm1w8T-xe2l-82" value="NO" style="edgeLabel;html=1;align=center;verticalAlign=middle;resizable=0;points=[];" vertex="1" connectable="0" parent="nxthDnFM8uPwBL5Utckb-47">
          <mxGeometry x="-0.0737" y="2" relative="1" as="geometry">
            <mxPoint as="offset" />
          </mxGeometry>
        </mxCell>
        <mxCell id="nxthDnFM8uPwBL5Utckb-40" value="vhost đã&amp;nbsp;&lt;br&gt;tồn tại" style="rhombus;whiteSpace=wrap;html=1;labelBackgroundColor=none;" parent="1" vertex="1">
          <mxGeometry x="335" y="840" width="80" height="80" as="geometry" />
        </mxCell>
        <mxCell id="nxthDnFM8uPwBL5Utckb-44" style="edgeStyle=orthogonalEdgeStyle;rounded=0;orthogonalLoop=1;jettySize=auto;html=1;entryX=0.5;entryY=1;entryDx=0;entryDy=0;labelBackgroundColor=none;fontColor=default;" parent="1" source="nxthDnFM8uPwBL5Utckb-42" target="nxthDnFM8uPwBL5Utckb-40" edge="1">
          <mxGeometry relative="1" as="geometry">
            <Array as="points">
              <mxPoint x="200" y="940" />
              <mxPoint x="375" y="940" />
            </Array>
          </mxGeometry>
        </mxCell>
        <mxCell id="nxthDnFM8uPwBL5Utckb-42" value="In ra console báo đã tồn tại và thực hiện các domain khác" style="shape=document;whiteSpace=wrap;html=1;boundedLbl=1;labelBackgroundColor=none;" parent="1" vertex="1">
          <mxGeometry x="140" y="840" width="120" height="80" as="geometry" />
        </mxCell>
        <mxCell id="nxthDnFM8uPwBL5Utckb-45" style="edgeStyle=orthogonalEdgeStyle;rounded=0;orthogonalLoop=1;jettySize=auto;html=1;labelBackgroundColor=none;fontColor=default;" parent="1" source="nxthDnFM8uPwBL5Utckb-42" edge="1">
          <mxGeometry relative="1" as="geometry">
            <Array as="points">
              <mxPoint x="200" y="338" />
            </Array>
            <mxPoint x="200" y="338" as="targetPoint" />
          </mxGeometry>
        </mxCell>
        <mxCell id="ND1mT_cxICm1w8T-xe2l-88" value="Nếu đã hết&lt;br&gt;vòng lặp" style="edgeLabel;html=1;align=center;verticalAlign=middle;resizable=0;points=[];" vertex="1" connectable="0" parent="nxthDnFM8uPwBL5Utckb-45">
          <mxGeometry x="0.6689" y="-1" relative="1" as="geometry">
            <mxPoint as="offset" />
          </mxGeometry>
        </mxCell>
        <mxCell id="nxthDnFM8uPwBL5Utckb-51" style="edgeStyle=orthogonalEdgeStyle;rounded=0;orthogonalLoop=1;jettySize=auto;html=1;labelBackgroundColor=none;fontColor=default;" parent="1" source="nxthDnFM8uPwBL5Utckb-46" target="nxthDnFM8uPwBL5Utckb-50" edge="1">
          <mxGeometry relative="1" as="geometry" />
        </mxCell>
        <mxCell id="nxthDnFM8uPwBL5Utckb-46" value="- thêm vào /var/www/vhost/$domain/public_html&lt;br&gt;&lt;br&gt;- thêm file $domain.conf vào /etc/apache2/site-available&lt;br&gt;- enable site a2ensite" style="rounded=0;whiteSpace=wrap;align=left;html=1;labelBackgroundColor=none;" parent="1" vertex="1">
          <mxGeometry x="290" y="660" width="170" height="130" as="geometry" />
        </mxCell>
        <mxCell id="ND1mT_cxICm1w8T-xe2l-85" style="edgeStyle=orthogonalEdgeStyle;rounded=0;orthogonalLoop=1;jettySize=auto;html=1;" edge="1" parent="1" source="nxthDnFM8uPwBL5Utckb-50">
          <mxGeometry relative="1" as="geometry">
            <mxPoint x="500" y="880" as="targetPoint" />
          </mxGeometry>
        </mxCell>
        <mxCell id="ND1mT_cxICm1w8T-xe2l-86" style="edgeStyle=orthogonalEdgeStyle;rounded=0;orthogonalLoop=1;jettySize=auto;html=1;" edge="1" parent="1" source="nxthDnFM8uPwBL5Utckb-50">
          <mxGeometry relative="1" as="geometry">
            <mxPoint x="500" y="340" as="targetPoint" />
          </mxGeometry>
        </mxCell>
        <mxCell id="ND1mT_cxICm1w8T-xe2l-87" value="Nếu đã hết&lt;br&gt;vòng lặp" style="edgeLabel;html=1;align=center;verticalAlign=middle;resizable=0;points=[];" vertex="1" connectable="0" parent="ND1mT_cxICm1w8T-xe2l-86">
          <mxGeometry x="0.2461" y="2" relative="1" as="geometry">
            <mxPoint as="offset" />
          </mxGeometry>
        </mxCell>
        <mxCell id="nxthDnFM8uPwBL5Utckb-50" value="In ra domain đã được thực hiện kích hoạt" style="shape=document;whiteSpace=wrap;html=1;boundedLbl=1;labelBackgroundColor=none;" parent="1" vertex="1">
          <mxGeometry x="286.25" y="480" width="177.5" height="110" as="geometry" />
        </mxCell>
        <mxCell id="nxthDnFM8uPwBL5Utckb-56" style="edgeStyle=orthogonalEdgeStyle;rounded=0;orthogonalLoop=1;jettySize=auto;html=1;labelBackgroundColor=none;fontColor=default;" parent="1" source="nxthDnFM8uPwBL5Utckb-53" target="nxthDnFM8uPwBL5Utckb-55" edge="1">
          <mxGeometry relative="1" as="geometry" />
        </mxCell>
        <mxCell id="_kMjXkaMJAMeNi4R97vT-38" value="&lt;div&gt;YES&lt;/div&gt;" style="edgeLabel;html=1;align=center;verticalAlign=middle;resizable=0;points=[];" parent="nxthDnFM8uPwBL5Utckb-56" vertex="1" connectable="0">
          <mxGeometry x="-0.1361" y="3" relative="1" as="geometry">
            <mxPoint y="-3" as="offset" />
          </mxGeometry>
        </mxCell>
        <mxCell id="nxthDnFM8uPwBL5Utckb-72" value="" style="edgeStyle=orthogonalEdgeStyle;rounded=0;orthogonalLoop=1;jettySize=auto;html=1;labelBackgroundColor=none;fontColor=default;" parent="1" source="nxthDnFM8uPwBL5Utckb-53" target="nxthDnFM8uPwBL5Utckb-71" edge="1">
          <mxGeometry relative="1" as="geometry" />
        </mxCell>
        <mxCell id="_kMjXkaMJAMeNi4R97vT-29" value="NO" style="edgeLabel;html=1;align=center;verticalAlign=middle;resizable=0;points=[];" parent="nxthDnFM8uPwBL5Utckb-72" vertex="1" connectable="0">
          <mxGeometry x="0.0594" relative="1" as="geometry">
            <mxPoint as="offset" />
          </mxGeometry>
        </mxCell>
        <mxCell id="nxthDnFM8uPwBL5Utckb-53" value="&lt;div&gt;3&lt;/div&gt;" style="rhombus;whiteSpace=wrap;html=1;labelBackgroundColor=none;" parent="1" vertex="1">
          <mxGeometry x="780" y="1000" width="80" height="80" as="geometry" />
        </mxCell>
        <mxCell id="nxthDnFM8uPwBL5Utckb-58" style="edgeStyle=orthogonalEdgeStyle;rounded=0;orthogonalLoop=1;jettySize=auto;html=1;entryX=1;entryY=0.5;entryDx=0;entryDy=0;labelBackgroundColor=none;fontColor=default;" parent="1" source="nxthDnFM8uPwBL5Utckb-55" target="nxthDnFM8uPwBL5Utckb-57" edge="1">
          <mxGeometry relative="1" as="geometry">
            <Array as="points">
              <mxPoint x="55" y="1040" />
            </Array>
          </mxGeometry>
        </mxCell>
        <mxCell id="nxthDnFM8uPwBL5Utckb-55" value="User input 1&lt;br&gt;hoặc nhiều vhost&lt;br&gt;cần xoá" style="shape=parallelogram;perimeter=parallelogramPerimeter;whiteSpace=wrap;html=1;fixedSize=1;labelBackgroundColor=none;" parent="1" vertex="1">
          <mxGeometry x="530" y="1005" width="120" height="70" as="geometry" />
        </mxCell>
        <mxCell id="nxthDnFM8uPwBL5Utckb-60" style="edgeStyle=orthogonalEdgeStyle;rounded=0;orthogonalLoop=1;jettySize=auto;html=1;labelBackgroundColor=none;fontColor=default;" parent="1" source="nxthDnFM8uPwBL5Utckb-57" target="nxthDnFM8uPwBL5Utckb-59" edge="1">
          <mxGeometry relative="1" as="geometry" />
        </mxCell>
        <mxCell id="ND1mT_cxICm1w8T-xe2l-90" value="NO" style="edgeLabel;html=1;align=center;verticalAlign=middle;resizable=0;points=[];" vertex="1" connectable="0" parent="nxthDnFM8uPwBL5Utckb-60">
          <mxGeometry x="-0.0276" y="2" relative="1" as="geometry">
            <mxPoint as="offset" />
          </mxGeometry>
        </mxCell>
        <mxCell id="nxthDnFM8uPwBL5Utckb-65" style="edgeStyle=orthogonalEdgeStyle;rounded=0;orthogonalLoop=1;jettySize=auto;html=1;exitX=0.5;exitY=0;exitDx=0;exitDy=0;entryX=0.5;entryY=1;entryDx=0;entryDy=0;labelBackgroundColor=none;fontColor=default;" parent="1" source="nxthDnFM8uPwBL5Utckb-57" target="nxthDnFM8uPwBL5Utckb-64" edge="1">
          <mxGeometry relative="1" as="geometry" />
        </mxCell>
        <mxCell id="ND1mT_cxICm1w8T-xe2l-89" value="YES" style="edgeLabel;html=1;align=center;verticalAlign=middle;resizable=0;points=[];" vertex="1" connectable="0" parent="nxthDnFM8uPwBL5Utckb-65">
          <mxGeometry x="-0.0789" y="2" relative="1" as="geometry">
            <mxPoint y="1" as="offset" />
          </mxGeometry>
        </mxCell>
        <mxCell id="nxthDnFM8uPwBL5Utckb-57" value="vHost có&lt;br&gt;tồn tại" style="rhombus;whiteSpace=wrap;html=1;labelBackgroundColor=none;" parent="1" vertex="1">
          <mxGeometry x="-47.5" y="990" width="95" height="100" as="geometry" />
        </mxCell>
        <mxCell id="ND1mT_cxICm1w8T-xe2l-94" style="edgeStyle=orthogonalEdgeStyle;rounded=0;orthogonalLoop=1;jettySize=auto;html=1;entryX=0.5;entryY=1;entryDx=0;entryDy=0;" edge="1" parent="1" source="nxthDnFM8uPwBL5Utckb-59" target="nxthDnFM8uPwBL5Utckb-57">
          <mxGeometry relative="1" as="geometry">
            <Array as="points">
              <mxPoint x="-200" y="1110" />
              <mxPoint y="1110" />
            </Array>
          </mxGeometry>
        </mxCell>
        <mxCell id="ND1mT_cxICm1w8T-xe2l-95" style="edgeStyle=orthogonalEdgeStyle;rounded=0;orthogonalLoop=1;jettySize=auto;html=1;" edge="1" parent="1" source="nxthDnFM8uPwBL5Utckb-59">
          <mxGeometry relative="1" as="geometry">
            <mxPoint x="-200" y="340" as="targetPoint" />
          </mxGeometry>
        </mxCell>
        <mxCell id="ND1mT_cxICm1w8T-xe2l-97" value="Nếu đã hết vòng lặp" style="edgeLabel;html=1;align=center;verticalAlign=middle;resizable=0;points=[];" vertex="1" connectable="0" parent="ND1mT_cxICm1w8T-xe2l-95">
          <mxGeometry x="0.7625" relative="1" as="geometry">
            <mxPoint as="offset" />
          </mxGeometry>
        </mxCell>
        <mxCell id="nxthDnFM8uPwBL5Utckb-59" value="In ra console báo không tồn tại và thực hiện các domain khác" style="shape=document;whiteSpace=wrap;html=1;boundedLbl=1;labelBackgroundColor=none;" parent="1" vertex="1">
          <mxGeometry x="-260" y="1000" width="120" height="80" as="geometry" />
        </mxCell>
        <mxCell id="nxthDnFM8uPwBL5Utckb-64" value="- xóa /var/www/vhost/$domain/public_html&lt;br&gt;&lt;br&gt;- xóa file $domain.conf vào /etc/apache2/site-available&lt;br&gt;- disable site a2dissite" style="rounded=0;whiteSpace=wrap;align=left;html=1;labelBackgroundColor=none;" parent="1" vertex="1">
          <mxGeometry x="-85" y="660" width="170" height="130" as="geometry" />
        </mxCell>
        <mxCell id="ND1mT_cxICm1w8T-xe2l-92" style="edgeStyle=orthogonalEdgeStyle;rounded=0;orthogonalLoop=1;jettySize=auto;html=1;" edge="1" parent="1" source="nxthDnFM8uPwBL5Utckb-68">
          <mxGeometry relative="1" as="geometry">
            <mxPoint x="120" y="1040" as="targetPoint" />
          </mxGeometry>
        </mxCell>
        <mxCell id="ND1mT_cxICm1w8T-xe2l-93" style="edgeStyle=orthogonalEdgeStyle;rounded=0;orthogonalLoop=1;jettySize=auto;html=1;" edge="1" parent="1" source="nxthDnFM8uPwBL5Utckb-68">
          <mxGeometry relative="1" as="geometry">
            <mxPoint x="120" y="340" as="targetPoint" />
          </mxGeometry>
        </mxCell>
        <mxCell id="ND1mT_cxICm1w8T-xe2l-96" value="Nếu đã hết&lt;br&gt;vòng lặp" style="edgeLabel;html=1;align=center;verticalAlign=middle;resizable=0;points=[];" vertex="1" connectable="0" parent="ND1mT_cxICm1w8T-xe2l-93">
          <mxGeometry x="0.7262" y="-1" relative="1" as="geometry">
            <mxPoint as="offset" />
          </mxGeometry>
        </mxCell>
        <mxCell id="nxthDnFM8uPwBL5Utckb-68" value="In ra các domain đã được xóa" style="shape=document;whiteSpace=wrap;html=1;boundedLbl=1;labelBackgroundColor=none;" parent="1" vertex="1">
          <mxGeometry x="-85" y="480" width="177.5" height="110" as="geometry" />
        </mxCell>
        <mxCell id="nxthDnFM8uPwBL5Utckb-69" style="edgeStyle=orthogonalEdgeStyle;rounded=0;orthogonalLoop=1;jettySize=auto;html=1;entryX=0.479;entryY=0.909;entryDx=0;entryDy=0;entryPerimeter=0;labelBackgroundColor=none;fontColor=default;" parent="1" source="nxthDnFM8uPwBL5Utckb-64" target="nxthDnFM8uPwBL5Utckb-68" edge="1">
          <mxGeometry relative="1" as="geometry" />
        </mxCell>
        <mxCell id="nxthDnFM8uPwBL5Utckb-79" style="edgeStyle=orthogonalEdgeStyle;rounded=0;orthogonalLoop=1;jettySize=auto;html=1;entryX=0;entryY=0.5;entryDx=0;entryDy=0;" parent="1" source="nxthDnFM8uPwBL5Utckb-71" target="nxthDnFM8uPwBL5Utckb-78" edge="1">
          <mxGeometry relative="1" as="geometry" />
        </mxCell>
        <mxCell id="_kMjXkaMJAMeNi4R97vT-39" value="&lt;div&gt;YES&lt;/div&gt;" style="edgeLabel;html=1;align=center;verticalAlign=middle;resizable=0;points=[];" parent="nxthDnFM8uPwBL5Utckb-79" vertex="1" connectable="0">
          <mxGeometry x="-0.1004" relative="1" as="geometry">
            <mxPoint as="offset" />
          </mxGeometry>
        </mxCell>
        <mxCell id="ND1mT_cxICm1w8T-xe2l-2" value="" style="edgeStyle=orthogonalEdgeStyle;rounded=0;orthogonalLoop=1;jettySize=auto;html=1;" edge="1" parent="1" source="nxthDnFM8uPwBL5Utckb-71" target="ND1mT_cxICm1w8T-xe2l-1">
          <mxGeometry relative="1" as="geometry" />
        </mxCell>
        <mxCell id="nxthDnFM8uPwBL5Utckb-71" value="&lt;div&gt;4&lt;/div&gt;" style="rhombus;whiteSpace=wrap;html=1;labelBackgroundColor=none;" parent="1" vertex="1">
          <mxGeometry x="780" y="1160" width="80" height="80" as="geometry" />
        </mxCell>
        <mxCell id="nxthDnFM8uPwBL5Utckb-77" style="edgeStyle=orthogonalEdgeStyle;rounded=0;orthogonalLoop=1;jettySize=auto;html=1;entryX=1;entryY=0.5;entryDx=0;entryDy=0;labelBackgroundColor=none;fontColor=default;" parent="1" source="nxthDnFM8uPwBL5Utckb-73" target="nxthDnFM8uPwBL5Utckb-75" edge="1">
          <mxGeometry relative="1" as="geometry" />
        </mxCell>
        <mxCell id="_kMjXkaMJAMeNi4R97vT-40" value="YES" style="edgeLabel;html=1;align=center;verticalAlign=middle;resizable=0;points=[];" parent="nxthDnFM8uPwBL5Utckb-77" vertex="1" connectable="0">
          <mxGeometry x="-0.1675" y="2" relative="1" as="geometry">
            <mxPoint x="-1" y="-2" as="offset" />
          </mxGeometry>
        </mxCell>
        <mxCell id="ND1mT_cxICm1w8T-xe2l-8" style="edgeStyle=orthogonalEdgeStyle;rounded=0;orthogonalLoop=1;jettySize=auto;html=1;entryX=0.5;entryY=0;entryDx=0;entryDy=0;" edge="1" parent="1" source="nxthDnFM8uPwBL5Utckb-73" target="_kMjXkaMJAMeNi4R97vT-31">
          <mxGeometry relative="1" as="geometry" />
        </mxCell>
        <mxCell id="nxthDnFM8uPwBL5Utckb-73" value="0" style="rhombus;whiteSpace=wrap;html=1;labelBackgroundColor=none;" parent="1" vertex="1">
          <mxGeometry x="780" y="2320" width="80" height="80" as="geometry" />
        </mxCell>
        <mxCell id="_kMjXkaMJAMeNi4R97vT-19" style="edgeStyle=orthogonalEdgeStyle;rounded=0;orthogonalLoop=1;jettySize=auto;html=1;entryX=1;entryY=0.5;entryDx=0;entryDy=0;" parent="1" source="nxthDnFM8uPwBL5Utckb-75" target="_kMjXkaMJAMeNi4R97vT-18" edge="1">
          <mxGeometry relative="1" as="geometry" />
        </mxCell>
        <mxCell id="nxthDnFM8uPwBL5Utckb-75" value="In &quot;Bye&quot; và kết thúc" style="shape=document;whiteSpace=wrap;html=1;boundedLbl=1;labelBackgroundColor=none;" parent="1" vertex="1">
          <mxGeometry x="540" y="2320" width="120" height="80" as="geometry" />
        </mxCell>
        <mxCell id="_kMjXkaMJAMeNi4R97vT-2" value="" style="edgeStyle=orthogonalEdgeStyle;rounded=0;orthogonalLoop=1;jettySize=auto;html=1;" parent="1" source="nxthDnFM8uPwBL5Utckb-78" target="_kMjXkaMJAMeNi4R97vT-1" edge="1">
          <mxGeometry relative="1" as="geometry" />
        </mxCell>
        <mxCell id="nxthDnFM8uPwBL5Utckb-78" value="User nhập lần lượt&lt;br&gt;vHost cũ&lt;br&gt;&lt;div&gt;vHost mới&lt;/div&gt;" style="shape=parallelogram;perimeter=parallelogramPerimeter;whiteSpace=wrap;html=1;fixedSize=1;" parent="1" vertex="1">
          <mxGeometry x="980" y="1155" width="140" height="90" as="geometry" />
        </mxCell>
        <mxCell id="_kMjXkaMJAMeNi4R97vT-4" style="edgeStyle=orthogonalEdgeStyle;rounded=0;orthogonalLoop=1;jettySize=auto;html=1;entryX=0;entryY=0.5;entryDx=0;entryDy=0;" parent="1" source="_kMjXkaMJAMeNi4R97vT-1" target="_kMjXkaMJAMeNi4R97vT-3" edge="1">
          <mxGeometry relative="1" as="geometry" />
        </mxCell>
        <mxCell id="_kMjXkaMJAMeNi4R97vT-7" value="NO" style="edgeLabel;html=1;align=center;verticalAlign=middle;resizable=0;points=[];" parent="_kMjXkaMJAMeNi4R97vT-4" vertex="1" connectable="0">
          <mxGeometry x="-0.3879" y="2" relative="1" as="geometry">
            <mxPoint as="offset" />
          </mxGeometry>
        </mxCell>
        <mxCell id="_kMjXkaMJAMeNi4R97vT-9" value="" style="edgeStyle=orthogonalEdgeStyle;rounded=0;orthogonalLoop=1;jettySize=auto;html=1;" parent="1" source="_kMjXkaMJAMeNi4R97vT-1" target="_kMjXkaMJAMeNi4R97vT-8" edge="1">
          <mxGeometry relative="1" as="geometry" />
        </mxCell>
        <mxCell id="_kMjXkaMJAMeNi4R97vT-10" value="YES" style="edgeLabel;html=1;align=center;verticalAlign=middle;resizable=0;points=[];" parent="_kMjXkaMJAMeNi4R97vT-9" vertex="1" connectable="0">
          <mxGeometry x="-0.3818" y="-3" relative="1" as="geometry">
            <mxPoint x="3" y="5" as="offset" />
          </mxGeometry>
        </mxCell>
        <mxCell id="_kMjXkaMJAMeNi4R97vT-1" value="vHost cũ có tồn tại&lt;br&gt;trong hệ thống?" style="rhombus;whiteSpace=wrap;html=1;" parent="1" vertex="1">
          <mxGeometry x="1230" y="1140" width="140" height="120" as="geometry" />
        </mxCell>
        <mxCell id="_kMjXkaMJAMeNi4R97vT-42" style="edgeStyle=orthogonalEdgeStyle;rounded=0;orthogonalLoop=1;jettySize=auto;html=1;" parent="1" source="_kMjXkaMJAMeNi4R97vT-3" edge="1">
          <mxGeometry relative="1" as="geometry">
            <mxPoint x="1050" y="360" as="targetPoint" />
            <Array as="points">
              <mxPoint x="1550" y="360" />
              <mxPoint x="1050" y="360" />
            </Array>
          </mxGeometry>
        </mxCell>
        <mxCell id="_kMjXkaMJAMeNi4R97vT-3" value="In ra console báo domain không tồn tại và thử nhập lại" style="shape=document;whiteSpace=wrap;html=1;boundedLbl=1;labelBackgroundColor=none;" parent="1" vertex="1">
          <mxGeometry x="1490" y="1160" width="120" height="80" as="geometry" />
        </mxCell>
        <mxCell id="_kMjXkaMJAMeNi4R97vT-12" style="edgeStyle=orthogonalEdgeStyle;rounded=0;orthogonalLoop=1;jettySize=auto;html=1;entryX=0;entryY=0.5;entryDx=0;entryDy=0;" parent="1" source="_kMjXkaMJAMeNi4R97vT-8" target="_kMjXkaMJAMeNi4R97vT-11" edge="1">
          <mxGeometry relative="1" as="geometry" />
        </mxCell>
        <mxCell id="_kMjXkaMJAMeNi4R97vT-13" value="YES" style="edgeLabel;html=1;align=center;verticalAlign=middle;resizable=0;points=[];" parent="_kMjXkaMJAMeNi4R97vT-12" vertex="1" connectable="0">
          <mxGeometry x="-0.1033" y="1" relative="1" as="geometry">
            <mxPoint as="offset" />
          </mxGeometry>
        </mxCell>
        <mxCell id="_kMjXkaMJAMeNi4R97vT-21" value="" style="edgeStyle=orthogonalEdgeStyle;rounded=0;orthogonalLoop=1;jettySize=auto;html=1;" parent="1" source="_kMjXkaMJAMeNi4R97vT-8" target="_kMjXkaMJAMeNi4R97vT-20" edge="1">
          <mxGeometry relative="1" as="geometry" />
        </mxCell>
        <mxCell id="_kMjXkaMJAMeNi4R97vT-22" value="NO" style="edgeLabel;html=1;align=center;verticalAlign=middle;resizable=0;points=[];" parent="_kMjXkaMJAMeNi4R97vT-21" vertex="1" connectable="0">
          <mxGeometry x="-0.41" y="2" relative="1" as="geometry">
            <mxPoint x="-2" y="15" as="offset" />
          </mxGeometry>
        </mxCell>
        <mxCell id="_kMjXkaMJAMeNi4R97vT-8" value="vHost mới có tồn tại&amp;nbsp;&lt;br&gt;trong hệ thống?" style="rhombus;whiteSpace=wrap;html=1;" parent="1" vertex="1">
          <mxGeometry x="1227.5" y="1340" width="145" height="140" as="geometry" />
        </mxCell>
        <mxCell id="_kMjXkaMJAMeNi4R97vT-45" style="edgeStyle=orthogonalEdgeStyle;rounded=0;orthogonalLoop=1;jettySize=auto;html=1;" parent="1" source="_kMjXkaMJAMeNi4R97vT-11" edge="1">
          <mxGeometry relative="1" as="geometry">
            <mxPoint x="1550" y="360" as="targetPoint" />
            <Array as="points">
              <mxPoint x="1660" y="1410" />
              <mxPoint x="1660" y="360" />
            </Array>
          </mxGeometry>
        </mxCell>
        <mxCell id="_kMjXkaMJAMeNi4R97vT-11" value="In ra domain mới đã có tồn tại trong hệ thống, thử lại" style="shape=document;whiteSpace=wrap;html=1;boundedLbl=1;" parent="1" vertex="1">
          <mxGeometry x="1490" y="1370" width="120" height="80" as="geometry" />
        </mxCell>
        <mxCell id="_kMjXkaMJAMeNi4R97vT-18" value="End" style="ellipse;whiteSpace=wrap;html=1;" parent="1" vertex="1">
          <mxGeometry x="250" y="2320" width="120" height="80" as="geometry" />
        </mxCell>
        <mxCell id="_kMjXkaMJAMeNi4R97vT-24" style="edgeStyle=orthogonalEdgeStyle;rounded=0;orthogonalLoop=1;jettySize=auto;html=1;entryX=0;entryY=0.5;entryDx=0;entryDy=0;" parent="1" source="_kMjXkaMJAMeNi4R97vT-20" target="_kMjXkaMJAMeNi4R97vT-23" edge="1">
          <mxGeometry relative="1" as="geometry" />
        </mxCell>
        <mxCell id="_kMjXkaMJAMeNi4R97vT-20" value="&lt;div align=&quot;left&quot;&gt;- mv /var/www/vhost/$old-domain/ /var/www/vhost/$new-domain&lt;/div&gt;&lt;div align=&quot;left&quot;&gt;- mv /etc/apache2/sites-available/$old-domain&amp;nbsp;/etc/apache2/sites-available/$new-domain&amp;nbsp;&lt;/div&gt;&lt;div align=&quot;left&quot;&gt;- sed -i &quot;s/$old-domain/$new-domain/g&quot; /etc/apache2/sites-available/$new-domain&lt;/div&gt;&lt;div align=&quot;left&quot;&gt;- a2ensite $new-domain.conf&lt;/div&gt;&lt;div align=&quot;left&quot;&gt;- httpd -t&lt;/div&gt;&lt;div align=&quot;left&quot;&gt;- systemctl restart apache2&lt;/div&gt;" style="whiteSpace=wrap;html=1;align=left;" parent="1" vertex="1">
          <mxGeometry x="1095" y="1610" width="410" height="140" as="geometry" />
        </mxCell>
        <mxCell id="_kMjXkaMJAMeNi4R97vT-25" style="edgeStyle=orthogonalEdgeStyle;rounded=0;orthogonalLoop=1;jettySize=auto;html=1;" parent="1" source="_kMjXkaMJAMeNi4R97vT-23" edge="1">
          <mxGeometry relative="1" as="geometry">
            <mxPoint x="1660" y="360" as="targetPoint" />
            <Array as="points">
              <mxPoint x="1815" y="360" />
            </Array>
          </mxGeometry>
        </mxCell>
        <mxCell id="_kMjXkaMJAMeNi4R97vT-23" value="In ra Đã thực hiện đổi tên vHost thành công" style="shape=document;whiteSpace=wrap;html=1;boundedLbl=1;" parent="1" vertex="1">
          <mxGeometry x="1740" y="1635" width="150" height="90" as="geometry" />
        </mxCell>
        <mxCell id="_kMjXkaMJAMeNi4R97vT-34" style="edgeStyle=orthogonalEdgeStyle;rounded=0;orthogonalLoop=1;jettySize=auto;html=1;" parent="1" source="_kMjXkaMJAMeNi4R97vT-31" edge="1">
          <mxGeometry relative="1" as="geometry">
            <mxPoint x="1810" y="360" as="targetPoint" />
            <Array as="points">
              <mxPoint x="2200" y="2520" />
              <mxPoint x="2200" y="360" />
            </Array>
          </mxGeometry>
        </mxCell>
        <mxCell id="_kMjXkaMJAMeNi4R97vT-31" value="Ký tự khác" style="rhombus;whiteSpace=wrap;html=1;labelBackgroundColor=none;" parent="1" vertex="1">
          <mxGeometry x="780" y="2480" width="80" height="80" as="geometry" />
        </mxCell>
        <mxCell id="_kMjXkaMJAMeNi4R97vT-47" style="edgeStyle=orthogonalEdgeStyle;rounded=0;orthogonalLoop=1;jettySize=auto;html=1;" parent="1" source="nxthDnFM8uPwBL5Utckb-25" edge="1">
          <mxGeometry relative="1" as="geometry">
            <Array as="points">
              <mxPoint x="1050" y="360" />
              <mxPoint x="957" y="360" />
            </Array>
            <mxPoint x="957" y="360" as="targetPoint" />
          </mxGeometry>
        </mxCell>
        <mxCell id="ND1mT_cxICm1w8T-xe2l-4" value="" style="edgeStyle=orthogonalEdgeStyle;rounded=0;orthogonalLoop=1;jettySize=auto;html=1;" edge="1" parent="1" source="ND1mT_cxICm1w8T-xe2l-1" target="ND1mT_cxICm1w8T-xe2l-3">
          <mxGeometry relative="1" as="geometry" />
        </mxCell>
        <mxCell id="ND1mT_cxICm1w8T-xe2l-12" style="edgeStyle=orthogonalEdgeStyle;rounded=0;orthogonalLoop=1;jettySize=auto;html=1;entryX=1;entryY=0.5;entryDx=0;entryDy=0;" edge="1" parent="1" source="ND1mT_cxICm1w8T-xe2l-1" target="ND1mT_cxICm1w8T-xe2l-11">
          <mxGeometry relative="1" as="geometry" />
        </mxCell>
        <mxCell id="ND1mT_cxICm1w8T-xe2l-1" value="&lt;div&gt;5&lt;/div&gt;" style="rhombus;whiteSpace=wrap;html=1;labelBackgroundColor=none;" vertex="1" parent="1">
          <mxGeometry x="780" y="1320" width="80" height="80" as="geometry" />
        </mxCell>
        <mxCell id="ND1mT_cxICm1w8T-xe2l-6" value="" style="edgeStyle=orthogonalEdgeStyle;rounded=0;orthogonalLoop=1;jettySize=auto;html=1;" edge="1" parent="1" source="ND1mT_cxICm1w8T-xe2l-3" target="ND1mT_cxICm1w8T-xe2l-5">
          <mxGeometry relative="1" as="geometry" />
        </mxCell>
        <mxCell id="ND1mT_cxICm1w8T-xe2l-36" style="edgeStyle=orthogonalEdgeStyle;rounded=0;orthogonalLoop=1;jettySize=auto;html=1;entryX=1;entryY=0.5;entryDx=0;entryDy=0;" edge="1" parent="1" source="ND1mT_cxICm1w8T-xe2l-3" target="ND1mT_cxICm1w8T-xe2l-35">
          <mxGeometry relative="1" as="geometry" />
        </mxCell>
        <mxCell id="ND1mT_cxICm1w8T-xe2l-3" value="&lt;div&gt;6&lt;/div&gt;" style="rhombus;whiteSpace=wrap;html=1;labelBackgroundColor=none;" vertex="1" parent="1">
          <mxGeometry x="780" y="1760" width="80" height="80" as="geometry" />
        </mxCell>
        <mxCell id="ND1mT_cxICm1w8T-xe2l-7" style="edgeStyle=orthogonalEdgeStyle;rounded=0;orthogonalLoop=1;jettySize=auto;html=1;entryX=0.5;entryY=0;entryDx=0;entryDy=0;" edge="1" parent="1" source="ND1mT_cxICm1w8T-xe2l-5" target="nxthDnFM8uPwBL5Utckb-73">
          <mxGeometry relative="1" as="geometry" />
        </mxCell>
        <mxCell id="ND1mT_cxICm1w8T-xe2l-62" value="" style="edgeStyle=orthogonalEdgeStyle;rounded=0;orthogonalLoop=1;jettySize=auto;html=1;" edge="1" parent="1" source="ND1mT_cxICm1w8T-xe2l-5" target="ND1mT_cxICm1w8T-xe2l-61">
          <mxGeometry relative="1" as="geometry" />
        </mxCell>
        <mxCell id="ND1mT_cxICm1w8T-xe2l-5" value="7" style="rhombus;whiteSpace=wrap;html=1;labelBackgroundColor=none;" vertex="1" parent="1">
          <mxGeometry x="780" y="2160" width="80" height="80" as="geometry" />
        </mxCell>
        <mxCell id="ND1mT_cxICm1w8T-xe2l-14" value="" style="edgeStyle=orthogonalEdgeStyle;rounded=0;orthogonalLoop=1;jettySize=auto;html=1;" edge="1" parent="1" source="ND1mT_cxICm1w8T-xe2l-11" target="ND1mT_cxICm1w8T-xe2l-13">
          <mxGeometry relative="1" as="geometry" />
        </mxCell>
        <mxCell id="ND1mT_cxICm1w8T-xe2l-11" value="User input 1&lt;br&gt;hoặc nhiều vhost&lt;br&gt;cần active" style="shape=parallelogram;perimeter=parallelogramPerimeter;whiteSpace=wrap;html=1;fixedSize=1;labelBackgroundColor=none;" vertex="1" parent="1">
          <mxGeometry x="530" y="1325" width="120" height="70" as="geometry" />
        </mxCell>
        <mxCell id="ND1mT_cxICm1w8T-xe2l-16" value="" style="edgeStyle=orthogonalEdgeStyle;rounded=0;orthogonalLoop=1;jettySize=auto;html=1;" edge="1" parent="1" source="ND1mT_cxICm1w8T-xe2l-13" target="ND1mT_cxICm1w8T-xe2l-15">
          <mxGeometry relative="1" as="geometry" />
        </mxCell>
        <mxCell id="ND1mT_cxICm1w8T-xe2l-18" value="YES" style="edgeLabel;html=1;align=center;verticalAlign=middle;resizable=0;points=[];" vertex="1" connectable="0" parent="ND1mT_cxICm1w8T-xe2l-16">
          <mxGeometry x="-0.0036" relative="1" as="geometry">
            <mxPoint as="offset" />
          </mxGeometry>
        </mxCell>
        <mxCell id="ND1mT_cxICm1w8T-xe2l-21" style="edgeStyle=orthogonalEdgeStyle;rounded=0;orthogonalLoop=1;jettySize=auto;html=1;" edge="1" parent="1" source="ND1mT_cxICm1w8T-xe2l-13" target="ND1mT_cxICm1w8T-xe2l-20">
          <mxGeometry relative="1" as="geometry" />
        </mxCell>
        <mxCell id="ND1mT_cxICm1w8T-xe2l-22" value="NO" style="edgeLabel;html=1;align=center;verticalAlign=middle;resizable=0;points=[];" vertex="1" connectable="0" parent="ND1mT_cxICm1w8T-xe2l-21">
          <mxGeometry x="-0.1821" y="2" relative="1" as="geometry">
            <mxPoint as="offset" />
          </mxGeometry>
        </mxCell>
        <mxCell id="ND1mT_cxICm1w8T-xe2l-13" value="vHost có&lt;br&gt;tồn tại?" style="rhombus;whiteSpace=wrap;html=1;labelBackgroundColor=none;" vertex="1" parent="1">
          <mxGeometry x="350" y="1320" width="80" height="80" as="geometry" />
        </mxCell>
        <mxCell id="ND1mT_cxICm1w8T-xe2l-26" value="" style="edgeStyle=orthogonalEdgeStyle;rounded=0;orthogonalLoop=1;jettySize=auto;html=1;" edge="1" parent="1" source="ND1mT_cxICm1w8T-xe2l-15" target="ND1mT_cxICm1w8T-xe2l-25">
          <mxGeometry relative="1" as="geometry" />
        </mxCell>
        <mxCell id="ND1mT_cxICm1w8T-xe2l-27" value="NO" style="edgeLabel;html=1;align=center;verticalAlign=middle;resizable=0;points=[];" vertex="1" connectable="0" parent="ND1mT_cxICm1w8T-xe2l-26">
          <mxGeometry x="-0.0524" relative="1" as="geometry">
            <mxPoint as="offset" />
          </mxGeometry>
        </mxCell>
        <mxCell id="ND1mT_cxICm1w8T-xe2l-48" style="edgeStyle=orthogonalEdgeStyle;rounded=0;orthogonalLoop=1;jettySize=auto;html=1;" edge="1" parent="1" source="ND1mT_cxICm1w8T-xe2l-15">
          <mxGeometry relative="1" as="geometry">
            <mxPoint x="-210" y="1400" as="targetPoint" />
            <Array as="points">
              <mxPoint x="230" y="1480" />
              <mxPoint x="-210" y="1480" />
            </Array>
          </mxGeometry>
        </mxCell>
        <mxCell id="ND1mT_cxICm1w8T-xe2l-50" value="YES" style="edgeLabel;html=1;align=center;verticalAlign=middle;resizable=0;points=[];" vertex="1" connectable="0" parent="ND1mT_cxICm1w8T-xe2l-48">
          <mxGeometry x="-0.8957" relative="1" as="geometry">
            <mxPoint as="offset" />
          </mxGeometry>
        </mxCell>
        <mxCell id="ND1mT_cxICm1w8T-xe2l-15" value="vHost đã&lt;br&gt;active?" style="rhombus;whiteSpace=wrap;html=1;labelBackgroundColor=none;" vertex="1" parent="1">
          <mxGeometry x="190" y="1320" width="80" height="80" as="geometry" />
        </mxCell>
        <mxCell id="ND1mT_cxICm1w8T-xe2l-34" style="edgeStyle=orthogonalEdgeStyle;rounded=0;orthogonalLoop=1;jettySize=auto;html=1;" edge="1" parent="1" source="ND1mT_cxICm1w8T-xe2l-20">
          <mxGeometry relative="1" as="geometry">
            <mxPoint x="-320" y="1360" as="targetPoint" />
            <Array as="points">
              <mxPoint x="390" y="1600" />
              <mxPoint x="-320" y="1600" />
            </Array>
          </mxGeometry>
        </mxCell>
        <mxCell id="ND1mT_cxICm1w8T-xe2l-100" style="edgeStyle=orthogonalEdgeStyle;rounded=0;orthogonalLoop=1;jettySize=auto;html=1;exitX=0.75;exitY=0;exitDx=0;exitDy=0;" edge="1" parent="1" source="ND1mT_cxICm1w8T-xe2l-20" target="ND1mT_cxICm1w8T-xe2l-13">
          <mxGeometry relative="1" as="geometry">
            <Array as="points">
              <mxPoint x="420" y="1420" />
              <mxPoint x="420" y="1420" />
            </Array>
          </mxGeometry>
        </mxCell>
        <mxCell id="ND1mT_cxICm1w8T-xe2l-20" value="In ra domain&lt;br&gt;chưa tồn tại" style="shape=document;whiteSpace=wrap;html=1;boundedLbl=1;labelBackgroundColor=none;" vertex="1" parent="1">
          <mxGeometry x="330" y="1480" width="120" height="80" as="geometry" />
        </mxCell>
        <mxCell id="ND1mT_cxICm1w8T-xe2l-31" style="edgeStyle=orthogonalEdgeStyle;rounded=0;orthogonalLoop=1;jettySize=auto;html=1;entryX=1;entryY=0.5;entryDx=0;entryDy=0;" edge="1" parent="1" source="ND1mT_cxICm1w8T-xe2l-25" target="ND1mT_cxICm1w8T-xe2l-30">
          <mxGeometry relative="1" as="geometry" />
        </mxCell>
        <mxCell id="ND1mT_cxICm1w8T-xe2l-25" value="Đổi tên về domain từ&lt;br&gt;domain.suspend&lt;br&gt;&lt;div align=&quot;left&quot;&gt;a2ensite domain.conf&lt;/div&gt;" style="whiteSpace=wrap;html=1;labelBackgroundColor=none;" vertex="1" parent="1">
          <mxGeometry x="-22.5" y="1330" width="120" height="60" as="geometry" />
        </mxCell>
        <mxCell id="ND1mT_cxICm1w8T-xe2l-32" style="edgeStyle=orthogonalEdgeStyle;rounded=0;orthogonalLoop=1;jettySize=auto;html=1;" edge="1" parent="1" source="ND1mT_cxICm1w8T-xe2l-30">
          <mxGeometry relative="1" as="geometry">
            <mxPoint x="680" y="340" as="targetPoint" />
            <Array as="points">
              <mxPoint x="-320" y="1360" />
              <mxPoint x="-320" y="340" />
            </Array>
          </mxGeometry>
        </mxCell>
        <mxCell id="ND1mT_cxICm1w8T-xe2l-49" style="edgeStyle=orthogonalEdgeStyle;rounded=0;orthogonalLoop=1;jettySize=auto;html=1;entryX=0.5;entryY=0;entryDx=0;entryDy=0;" edge="1" parent="1" source="ND1mT_cxICm1w8T-xe2l-30" target="ND1mT_cxICm1w8T-xe2l-15">
          <mxGeometry relative="1" as="geometry">
            <Array as="points">
              <mxPoint x="-150" y="1240" />
              <mxPoint x="230" y="1240" />
            </Array>
          </mxGeometry>
        </mxCell>
        <mxCell id="ND1mT_cxICm1w8T-xe2l-30" value="In ra domain&lt;br&gt;đã được active&lt;br&gt;và thực hiện các domain khác" style="shape=document;whiteSpace=wrap;html=1;boundedLbl=1;labelBackgroundColor=none;" vertex="1" parent="1">
          <mxGeometry x="-210" y="1320" width="120" height="80" as="geometry" />
        </mxCell>
        <mxCell id="ND1mT_cxICm1w8T-xe2l-44" style="edgeStyle=orthogonalEdgeStyle;rounded=0;orthogonalLoop=1;jettySize=auto;html=1;entryX=1;entryY=0.5;entryDx=0;entryDy=0;" edge="1" parent="1" source="ND1mT_cxICm1w8T-xe2l-35" target="ND1mT_cxICm1w8T-xe2l-37">
          <mxGeometry relative="1" as="geometry" />
        </mxCell>
        <mxCell id="ND1mT_cxICm1w8T-xe2l-35" value="User input 1&lt;br&gt;hoặc nhiều vhost&lt;br&gt;cần disable" style="shape=parallelogram;perimeter=parallelogramPerimeter;whiteSpace=wrap;html=1;fixedSize=1;labelBackgroundColor=none;" vertex="1" parent="1">
          <mxGeometry x="540" y="1765" width="120" height="70" as="geometry" />
        </mxCell>
        <mxCell id="ND1mT_cxICm1w8T-xe2l-45" style="edgeStyle=orthogonalEdgeStyle;rounded=0;orthogonalLoop=1;jettySize=auto;html=1;entryX=1;entryY=0.5;entryDx=0;entryDy=0;" edge="1" parent="1" source="ND1mT_cxICm1w8T-xe2l-37" target="ND1mT_cxICm1w8T-xe2l-38">
          <mxGeometry relative="1" as="geometry" />
        </mxCell>
        <mxCell id="ND1mT_cxICm1w8T-xe2l-58" value="YES" style="edgeLabel;html=1;align=center;verticalAlign=middle;resizable=0;points=[];" vertex="1" connectable="0" parent="ND1mT_cxICm1w8T-xe2l-45">
          <mxGeometry x="-0.1676" y="2" relative="1" as="geometry">
            <mxPoint as="offset" />
          </mxGeometry>
        </mxCell>
        <mxCell id="ND1mT_cxICm1w8T-xe2l-51" style="edgeStyle=orthogonalEdgeStyle;rounded=0;orthogonalLoop=1;jettySize=auto;html=1;entryX=0.5;entryY=0;entryDx=0;entryDy=0;" edge="1" parent="1" source="ND1mT_cxICm1w8T-xe2l-37" target="ND1mT_cxICm1w8T-xe2l-39">
          <mxGeometry relative="1" as="geometry" />
        </mxCell>
        <mxCell id="ND1mT_cxICm1w8T-xe2l-59" value="NO" style="edgeLabel;html=1;align=center;verticalAlign=middle;resizable=0;points=[];" vertex="1" connectable="0" parent="ND1mT_cxICm1w8T-xe2l-51">
          <mxGeometry x="-0.1647" relative="1" as="geometry">
            <mxPoint as="offset" />
          </mxGeometry>
        </mxCell>
        <mxCell id="ND1mT_cxICm1w8T-xe2l-37" value="vHost có&lt;br&gt;tồn tại?" style="rhombus;whiteSpace=wrap;html=1;labelBackgroundColor=none;" vertex="1" parent="1">
          <mxGeometry x="350" y="1760" width="80" height="80" as="geometry" />
        </mxCell>
        <mxCell id="ND1mT_cxICm1w8T-xe2l-46" style="edgeStyle=orthogonalEdgeStyle;rounded=0;orthogonalLoop=1;jettySize=auto;html=1;entryX=1;entryY=0.5;entryDx=0;entryDy=0;" edge="1" parent="1" source="ND1mT_cxICm1w8T-xe2l-38" target="ND1mT_cxICm1w8T-xe2l-41">
          <mxGeometry relative="1" as="geometry" />
        </mxCell>
        <mxCell id="ND1mT_cxICm1w8T-xe2l-55" value="NO" style="edgeLabel;html=1;align=center;verticalAlign=middle;resizable=0;points=[];" vertex="1" connectable="0" parent="ND1mT_cxICm1w8T-xe2l-46">
          <mxGeometry x="-0.0258" y="3" relative="1" as="geometry">
            <mxPoint x="-5" y="-3" as="offset" />
          </mxGeometry>
        </mxCell>
        <mxCell id="ND1mT_cxICm1w8T-xe2l-54" style="edgeStyle=orthogonalEdgeStyle;rounded=0;orthogonalLoop=1;jettySize=auto;html=1;entryX=-0.003;entryY=0.918;entryDx=0;entryDy=0;entryPerimeter=0;" edge="1" parent="1" source="ND1mT_cxICm1w8T-xe2l-38" target="ND1mT_cxICm1w8T-xe2l-42">
          <mxGeometry relative="1" as="geometry">
            <Array as="points">
              <mxPoint x="230" y="1920" />
              <mxPoint x="-210" y="1920" />
            </Array>
          </mxGeometry>
        </mxCell>
        <mxCell id="ND1mT_cxICm1w8T-xe2l-57" value="YES" style="edgeLabel;html=1;align=center;verticalAlign=middle;resizable=0;points=[];" vertex="1" connectable="0" parent="ND1mT_cxICm1w8T-xe2l-54">
          <mxGeometry x="-0.9093" y="-3" relative="1" as="geometry">
            <mxPoint as="offset" />
          </mxGeometry>
        </mxCell>
        <mxCell id="ND1mT_cxICm1w8T-xe2l-38" value="vHost đã&lt;br&gt;disable?" style="rhombus;whiteSpace=wrap;html=1;labelBackgroundColor=none;" vertex="1" parent="1">
          <mxGeometry x="190" y="1760" width="80" height="80" as="geometry" />
        </mxCell>
        <mxCell id="ND1mT_cxICm1w8T-xe2l-60" style="edgeStyle=orthogonalEdgeStyle;rounded=0;orthogonalLoop=1;jettySize=auto;html=1;" edge="1" parent="1" source="ND1mT_cxICm1w8T-xe2l-39">
          <mxGeometry relative="1" as="geometry">
            <mxPoint x="-320" y="1800" as="targetPoint" />
          </mxGeometry>
        </mxCell>
        <mxCell id="ND1mT_cxICm1w8T-xe2l-99" style="edgeStyle=orthogonalEdgeStyle;rounded=0;orthogonalLoop=1;jettySize=auto;html=1;exitX=0.75;exitY=0;exitDx=0;exitDy=0;" edge="1" parent="1" source="ND1mT_cxICm1w8T-xe2l-39" target="ND1mT_cxICm1w8T-xe2l-37">
          <mxGeometry relative="1" as="geometry">
            <Array as="points">
              <mxPoint x="420" y="1860" />
              <mxPoint x="420" y="1860" />
            </Array>
          </mxGeometry>
        </mxCell>
        <mxCell id="ND1mT_cxICm1w8T-xe2l-39" value="In ra domain&lt;br&gt;chưa tồn tại" style="shape=document;whiteSpace=wrap;html=1;boundedLbl=1;labelBackgroundColor=none;" vertex="1" parent="1">
          <mxGeometry x="330" y="1950" width="120" height="80" as="geometry" />
        </mxCell>
        <mxCell id="ND1mT_cxICm1w8T-xe2l-47" style="edgeStyle=orthogonalEdgeStyle;rounded=0;orthogonalLoop=1;jettySize=auto;html=1;entryX=1;entryY=0.5;entryDx=0;entryDy=0;" edge="1" parent="1" source="ND1mT_cxICm1w8T-xe2l-41" target="ND1mT_cxICm1w8T-xe2l-42">
          <mxGeometry relative="1" as="geometry" />
        </mxCell>
        <mxCell id="ND1mT_cxICm1w8T-xe2l-41" value="Đổi tên về domain.suspend từ&lt;br&gt;domain&lt;div align=&quot;left&quot;&gt;a2dissite domain.conf&lt;/div&gt;" style="whiteSpace=wrap;html=1;labelBackgroundColor=none;" vertex="1" parent="1">
          <mxGeometry x="-22.5" y="1770" width="120" height="60" as="geometry" />
        </mxCell>
        <mxCell id="ND1mT_cxICm1w8T-xe2l-52" style="edgeStyle=orthogonalEdgeStyle;rounded=0;orthogonalLoop=1;jettySize=auto;html=1;" edge="1" parent="1" source="ND1mT_cxICm1w8T-xe2l-42">
          <mxGeometry relative="1" as="geometry">
            <mxPoint x="-320" y="1600" as="targetPoint" />
          </mxGeometry>
        </mxCell>
        <mxCell id="ND1mT_cxICm1w8T-xe2l-53" style="edgeStyle=orthogonalEdgeStyle;rounded=0;orthogonalLoop=1;jettySize=auto;html=1;entryX=0.5;entryY=0;entryDx=0;entryDy=0;" edge="1" parent="1" source="ND1mT_cxICm1w8T-xe2l-42" target="ND1mT_cxICm1w8T-xe2l-38">
          <mxGeometry relative="1" as="geometry">
            <Array as="points">
              <mxPoint x="-150" y="1700" />
              <mxPoint x="230" y="1700" />
            </Array>
          </mxGeometry>
        </mxCell>
        <mxCell id="ND1mT_cxICm1w8T-xe2l-42" value="In ra domain&lt;br&gt;đã được disable" style="shape=document;whiteSpace=wrap;html=1;boundedLbl=1;labelBackgroundColor=none;" vertex="1" parent="1">
          <mxGeometry x="-210" y="1760" width="120" height="80" as="geometry" />
        </mxCell>
        <mxCell id="ND1mT_cxICm1w8T-xe2l-66" value="" style="edgeStyle=orthogonalEdgeStyle;rounded=0;orthogonalLoop=1;jettySize=auto;html=1;" edge="1" parent="1" source="ND1mT_cxICm1w8T-xe2l-61" target="ND1mT_cxICm1w8T-xe2l-65">
          <mxGeometry relative="1" as="geometry" />
        </mxCell>
        <mxCell id="ND1mT_cxICm1w8T-xe2l-78" value="YES" style="edgeLabel;html=1;align=center;verticalAlign=middle;resizable=0;points=[];" vertex="1" connectable="0" parent="ND1mT_cxICm1w8T-xe2l-66">
          <mxGeometry x="-0.1506" relative="1" as="geometry">
            <mxPoint x="1" as="offset" />
          </mxGeometry>
        </mxCell>
        <mxCell id="ND1mT_cxICm1w8T-xe2l-74" style="edgeStyle=orthogonalEdgeStyle;rounded=0;orthogonalLoop=1;jettySize=auto;html=1;entryX=0;entryY=0.5;entryDx=0;entryDy=0;" edge="1" parent="1" source="ND1mT_cxICm1w8T-xe2l-61" target="ND1mT_cxICm1w8T-xe2l-72">
          <mxGeometry relative="1" as="geometry">
            <Array as="points">
              <mxPoint x="1025" y="2355" />
            </Array>
          </mxGeometry>
        </mxCell>
        <mxCell id="ND1mT_cxICm1w8T-xe2l-79" value="NO" style="edgeLabel;html=1;align=center;verticalAlign=middle;resizable=0;points=[];" vertex="1" connectable="0" parent="ND1mT_cxICm1w8T-xe2l-74">
          <mxGeometry x="-0.9333" y="-1" relative="1" as="geometry">
            <mxPoint y="-1" as="offset" />
          </mxGeometry>
        </mxCell>
        <mxCell id="ND1mT_cxICm1w8T-xe2l-61" value="vHost có tồn tại và&lt;br&gt;không bị disable" style="rhombus;whiteSpace=wrap;html=1;labelBackgroundColor=none;" vertex="1" parent="1">
          <mxGeometry x="950" y="2138.75" width="150" height="122.5" as="geometry" />
        </mxCell>
        <mxCell id="ND1mT_cxICm1w8T-xe2l-68" value="" style="edgeStyle=orthogonalEdgeStyle;rounded=0;orthogonalLoop=1;jettySize=auto;html=1;" edge="1" parent="1" source="ND1mT_cxICm1w8T-xe2l-65" target="ND1mT_cxICm1w8T-xe2l-67">
          <mxGeometry relative="1" as="geometry" />
        </mxCell>
        <mxCell id="ND1mT_cxICm1w8T-xe2l-81" value="YES" style="edgeLabel;html=1;align=center;verticalAlign=middle;resizable=0;points=[];" vertex="1" connectable="0" parent="ND1mT_cxICm1w8T-xe2l-68">
          <mxGeometry x="-0.4027" y="1" relative="1" as="geometry">
            <mxPoint x="1" as="offset" />
          </mxGeometry>
        </mxCell>
        <mxCell id="ND1mT_cxICm1w8T-xe2l-75" style="edgeStyle=orthogonalEdgeStyle;rounded=0;orthogonalLoop=1;jettySize=auto;html=1;entryX=0;entryY=0.5;entryDx=0;entryDy=0;" edge="1" parent="1" source="ND1mT_cxICm1w8T-xe2l-65" target="ND1mT_cxICm1w8T-xe2l-73">
          <mxGeometry relative="1" as="geometry">
            <Array as="points">
              <mxPoint x="1245" y="2035" />
            </Array>
          </mxGeometry>
        </mxCell>
        <mxCell id="ND1mT_cxICm1w8T-xe2l-80" value="NO" style="edgeLabel;html=1;align=center;verticalAlign=middle;resizable=0;points=[];" vertex="1" connectable="0" parent="ND1mT_cxICm1w8T-xe2l-75">
          <mxGeometry x="-0.872" y="1" relative="1" as="geometry">
            <mxPoint as="offset" />
          </mxGeometry>
        </mxCell>
        <mxCell id="ND1mT_cxICm1w8T-xe2l-65" value="Thư mục của vHost&lt;br&gt;có trống hay không?" style="rhombus;whiteSpace=wrap;html=1;labelBackgroundColor=none;" vertex="1" parent="1">
          <mxGeometry x="1170" y="2138.75" width="150" height="122.5" as="geometry" />
        </mxCell>
        <mxCell id="ND1mT_cxICm1w8T-xe2l-70" style="edgeStyle=orthogonalEdgeStyle;rounded=0;orthogonalLoop=1;jettySize=auto;html=1;" edge="1" parent="1" source="ND1mT_cxICm1w8T-xe2l-67" target="ND1mT_cxICm1w8T-xe2l-69">
          <mxGeometry relative="1" as="geometry" />
        </mxCell>
        <mxCell id="ND1mT_cxICm1w8T-xe2l-67" value="&lt;div align=&quot;left&quot;&gt;Tạo db, db user, gán quyền db cho db user -&amp;gt; in ra file creds.txt trong vHost&lt;br&gt;cd vào vHost/public_html&lt;br&gt;Tải WP coẻ về, copy file wp-config-sample.php sang wp-config.php và sed&lt;br&gt;Cài wordpress bằng wp-cli -&amp;gt; in ra thông tin&lt;/div&gt;" style="whiteSpace=wrap;html=1;labelBackgroundColor=none;align=left;" vertex="1" parent="1">
          <mxGeometry x="1400" y="2138.75" width="420" height="120" as="geometry" />
        </mxCell>
        <mxCell id="ND1mT_cxICm1w8T-xe2l-71" style="edgeStyle=orthogonalEdgeStyle;rounded=0;orthogonalLoop=1;jettySize=auto;html=1;" edge="1" parent="1" source="ND1mT_cxICm1w8T-xe2l-69">
          <mxGeometry relative="1" as="geometry">
            <mxPoint x="2200" y="2200" as="targetPoint" />
          </mxGeometry>
        </mxCell>
        <mxCell id="ND1mT_cxICm1w8T-xe2l-69" value="In ra thông tin quản trị và&lt;br&gt;thông tin tài khoản db được luu ở đâu" style="shape=document;whiteSpace=wrap;html=1;boundedLbl=1;" vertex="1" parent="1">
          <mxGeometry x="1940" y="2155" width="150" height="90" as="geometry" />
        </mxCell>
        <mxCell id="ND1mT_cxICm1w8T-xe2l-77" style="edgeStyle=orthogonalEdgeStyle;rounded=0;orthogonalLoop=1;jettySize=auto;html=1;" edge="1" parent="1" source="ND1mT_cxICm1w8T-xe2l-72">
          <mxGeometry relative="1" as="geometry">
            <mxPoint x="2200" y="2355" as="targetPoint" />
          </mxGeometry>
        </mxCell>
        <mxCell id="ND1mT_cxICm1w8T-xe2l-72" value="In ra thông báo vHost không tồn tại hoặc đã bị suspend" style="shape=document;whiteSpace=wrap;html=1;boundedLbl=1;" vertex="1" parent="1">
          <mxGeometry x="1940" y="2310" width="150" height="90" as="geometry" />
        </mxCell>
        <mxCell id="ND1mT_cxICm1w8T-xe2l-76" style="edgeStyle=orthogonalEdgeStyle;rounded=0;orthogonalLoop=1;jettySize=auto;html=1;" edge="1" parent="1" source="ND1mT_cxICm1w8T-xe2l-73">
          <mxGeometry relative="1" as="geometry">
            <mxPoint x="2200" y="2035" as="targetPoint" />
          </mxGeometry>
        </mxCell>
        <mxCell id="ND1mT_cxICm1w8T-xe2l-73" value="In ra thông tin thư mục có dữ liệu, cần check lại trc khi cài đặt" style="shape=document;whiteSpace=wrap;html=1;boundedLbl=1;" vertex="1" parent="1">
          <mxGeometry x="1940" y="1990" width="150" height="90" as="geometry" />
        </mxCell>
      </root>
    </mxGraphModel>
  </diagram>
</mxfile>
